<svg width="282" height="166" xmlns="http://www.w3.org/2000/svg" xmlns:xlink="http://www.w3.org/1999/xlink" xml:space="preserve" overflow="hidden"><defs><clipPath id="clip0"><rect x="616" y="33" width="282" height="166"/></clipPath><linearGradient x1="96.9215" y1="49.9844" x2="230.792" y2="49.9844" gradientUnits="userSpaceOnUse" spreadMethod="pad" id="fill1"><stop offset="0" stop-color="#941C1F"/><stop offset="0.22" stop-color="#A92527"/><stop offset="0.74" stop-color="#D53839"/><stop offset="1" stop-color="#E64040"/></linearGradient><linearGradient x1="121.106" y1="92.9859" x2="121.003" y2="67.2452" gradientUnits="userSpaceOnUse" spreadMethod="pad" id="fill2"><stop offset="0" stop-color="#0D1437"/><stop offset="0.19" stop-color="#111F49"/><stop offset="0.73" stop-color="#1B3A75"/><stop offset="1" stop-color="#1F4586"/></linearGradient><linearGradient x1="144.177" y1="46.2923" x2="144.177" y2="0.0176255" gradientUnits="userSpaceOnUse" spreadMethod="pad" id="fill3"><stop offset="0" stop-color="#941C1F"/><stop offset="0.22" stop-color="#A92527"/><stop offset="0.74" stop-color="#D53839"/><stop offset="1" stop-color="#E64040"/></linearGradient><linearGradient x1="224.302" y1="40.8758" x2="242.284" y2="9.73054" gradientUnits="userSpaceOnUse" spreadMethod="pad" id="fill4"><stop offset="0" stop-color="#941C1F"/><stop offset="0.22" stop-color="#A92527"/><stop offset="0.74" stop-color="#D53839"/><stop offset="1" stop-color="#E64040"/></linearGradient><linearGradient x1="54.9257" y1="65.8352" x2="59.4034" y2="58.0779" gradientUnits="userSpaceOnUse" spreadMethod="pad" id="fill5"><stop offset="0" stop-color="#0D1437"/><stop offset="0.19" stop-color="#111F49"/><stop offset="0.73" stop-color="#1B3A75"/><stop offset="1" stop-color="#1F4586"/></linearGradient></defs><g clip-path="url(#clip0)" transform="translate(-616 -33)"><path d="M96.9691 62.3687C96.9691 62.3687 96.9691 50.9233 123.91 52.5961 123.91 52.5961 145.92 56.646 185.187 47.8418 215.403 41.0626 230.792 25.3032 230.792 25.3032 230.792 25.3032 221.988 41.362 187.476 57.4032 153.844 73.0217 95.0322 84.4672 96.9691 62.3687Z" stroke="#FFFFFF" stroke-width="0.704333" stroke-miterlimit="10" fill="url(#fill1)" transform="matrix(1 0 0 1.01011 616.054 33)"/><path d="M190.117 73.638C190.117 73.638 187.529 62.492 161.662 70.2396 161.662 70.2396 141.148 79.1847 100.913 79.5192 69.9579 79.7657 51.3811 67.9153 51.3811 67.9153 51.3811 67.9153 63.5837 81.5442 100.843 89.3447 137.151 96.9163 197.02 94.7152 190.117 73.638Z" stroke="#FFFFFF" stroke-width="0.704333" stroke-miterlimit="10" fill="url(#fill2)" transform="matrix(1 0 0 1.01011 616.054 33)"/><path d="M167.314 23.155C167.314 35.9334 156.955 46.2923 144.177 46.2923 131.399 46.2923 121.04 35.9334 121.04 23.155 121.04 10.3766 131.399 0.0176083 144.177 0.0176083 156.955 0.0176083 167.314 10.3766 167.314 23.155Z" stroke="#FFFFFF" stroke-width="0.704333" stroke-miterlimit="10" fill="url(#fill3)" transform="matrix(1 0 0 1.01011 616.054 33)"/><path d="M215.315 25.3032C215.315 15.3721 223.362 7.32506 233.293 7.32506 243.224 7.32506 251.271 15.3721 251.271 25.3032 251.271 35.2343 243.224 43.2813 233.293 43.2813 223.362 43.2813 215.315 35.2343 215.315 25.3032L215.315 25.3032Z" stroke="#FFFFFF" stroke-width="0.704333" stroke-miterlimit="10" fill="url(#fill4)" transform="matrix(1 0 0 1.01011 616.054 33)"/><path d="M52.6841 61.9637C52.6841 59.4809 54.6915 57.4736 57.1566 57.4736 59.6218 57.4736 61.6468 59.4809 61.6468 61.9461 61.6468 64.4289 59.6394 66.4362 57.1742 66.4362L57.1742 66.4362C54.6915 66.4362 52.6841 64.4289 52.6841 61.9637L52.6841 61.9637Z" stroke="#FFFFFF" stroke-width="0.704333" stroke-miterlimit="10" fill="url(#fill5)" transform="matrix(1 0 0 1.01011 616.054 33)"/><path d="" stroke="#FFFFFF" stroke-width="0.176083" stroke-miterlimit="10" fill="none" transform="matrix(1 0 0 1.01011 616.054 33)"/><path d="M11.7976 155.217C11.7976 155.728 11.6743 156.221 11.4454 156.661 11.1813 157.137 10.7587 157.507 10.2833 157.753L10.2833 157.788C10.5826 157.894 10.8467 158.017 11.1109 158.176 11.3574 158.334 11.5687 158.528 11.7624 158.757 11.9384 158.986 12.0793 159.232 12.185 159.496 12.2906 159.796 12.3434 160.113 12.3258 160.429 12.3258 160.746 12.273 161.081 12.185 161.38 12.0793 161.733 11.9208 162.067 11.6919 162.366 11.4278 162.719 11.1109 163 10.7411 163.247 10.2833 163.546 9.79023 163.757 9.26198 163.881 9.10351 163.916 8.94503 163.951 8.76895 163.986 8.59286 164.022 8.39917 164.039 8.17027 164.057 7.94136 164.074 7.71245 164.092 7.44832 164.11 7.1842 164.127 6.86725 164.11 6.53269 164.11L3.01102 164.11 3.01102 151.977 7.21942 151.977C7.95897 151.96 8.68091 152.048 9.40285 152.259 9.79023 152.382 10.1424 152.559 10.477 152.787 10.7587 152.981 11.0228 153.228 11.2341 153.509 11.6039 154.002 11.7976 154.601 11.7976 155.217L11.7976 155.217ZM7.23702 156.978C7.69484 156.996 8.15266 156.943 8.59286 156.802 8.89221 156.697 9.13872 156.485 9.2972 156.221 9.43806 155.975 9.5085 155.675 9.5085 155.394 9.5085 155.094 9.42046 154.795 9.26198 154.531 9.05068 154.249 8.76895 154.055 8.43439 153.967 8.2407 153.914 8.06462 153.879 7.87092 153.862 7.65962 153.844 7.37789 153.826 7.06094 153.826L5.22967 153.826 5.22967 156.961 7.23702 156.978ZM5.22967 158.827 5.22967 162.243 6.69117 162.243C7.07855 162.243 7.41311 162.226 7.69484 162.208 7.94136 162.19 8.17027 162.155 8.41678 162.102 8.68091 162.049 8.94503 161.961 9.19155 161.838 9.38524 161.733 9.54371 161.609 9.68458 161.451 9.80784 161.31 9.89588 161.151 9.94871 160.975 10.0015 160.799 10.0367 160.606 10.0367 160.429 10.0367 160.113 9.94871 159.796 9.75502 159.531 9.52611 159.25 9.22676 159.056 8.8746 158.968 8.68091 158.915 8.46961 158.862 8.25831 158.845 7.95897 158.81 7.65962 158.81 7.34267 158.81L5.22967 158.827Z" stroke="#FFFFFF" stroke-width="0.176083" stroke-miterlimit="10" fill="#1D1D1B" transform="matrix(1 0 0 1.01011 616.054 33)"/><path d="M33.6495 158.052C33.6671 158.915 33.5263 159.778 33.2621 160.588 33.0156 161.328 32.6282 161.997 32.1176 162.578 31.607 163.141 30.9731 163.581 30.2687 163.881 28.6488 164.497 26.8703 164.497 25.2503 163.881 24.546 163.599 23.9121 163.141 23.4015 162.578 22.8908 161.997 22.4858 161.328 22.2569 160.588 21.7287 158.933 21.7287 157.154 22.2569 155.499 22.5034 154.76 22.8908 154.09 23.4015 153.509 23.9121 152.946 24.546 152.506 25.2503 152.206 26.8703 151.59 28.6488 151.59 30.2687 152.206 30.9731 152.488 31.607 152.946 32.1176 153.509 32.6282 154.09 33.0332 154.76 33.2621 155.499 33.5263 156.327 33.6671 157.19 33.6495 158.052ZM31.3604 158.052C31.378 157.401 31.29 156.749 31.0963 156.115 30.9378 155.605 30.6913 155.147 30.3392 154.742 30.0222 154.372 29.6348 154.09 29.1946 153.914 28.2614 153.545 27.2225 153.545 26.2892 153.914 25.849 154.09 25.4616 154.372 25.1447 154.742 24.8101 155.147 24.546 155.622 24.3875 156.115 24.0178 157.383 24.0178 158.721 24.3875 159.989 24.546 160.5 24.7925 160.958 25.1447 161.363 25.4616 161.715 25.849 161.997 26.2892 162.19 27.2225 162.56 28.2614 162.56 29.1946 162.19 29.6348 162.014 30.0222 161.733 30.3392 161.363 30.6737 160.958 30.9378 160.482 31.0963 159.989 31.29 159.355 31.378 158.704 31.3604 158.052Z" stroke="#FFFFFF" stroke-width="0.176083" stroke-miterlimit="10" fill="#1D1D1B" transform="matrix(1 0 0 1.01011 616.054 33)"/><path d="M52.7722 155.622C52.7898 156.397 52.5433 157.154 52.0678 157.771 51.5924 158.352 50.8705 158.792 49.902 159.074L49.902 159.109 53.5117 164.11 50.8529 164.11 47.5425 159.426 46.0106 159.426 46.0106 164.11 43.7919 164.11 43.7919 151.977 47.4897 151.977C48.0531 151.977 48.6342 152.013 49.1977 152.083 49.6555 152.136 50.1133 152.242 50.5535 152.4 51.205 152.629 51.7861 153.052 52.2087 153.615 52.5961 154.214 52.8074 154.918 52.7722 155.622ZM47.1199 157.559C47.5425 157.559 47.9827 157.542 48.4053 157.489 48.7046 157.454 49.004 157.383 49.3033 157.278 49.6907 157.154 50.0077 156.908 50.2366 156.591 50.4126 156.292 50.5007 155.939 50.5007 155.587 50.5007 155.288 50.4303 154.989 50.2894 154.724 50.1309 154.46 49.8844 154.249 49.6027 154.126 49.3561 154.02 49.0744 153.932 48.8103 153.897 48.4229 153.844 48.0179 153.826 47.6305 153.826L46.0458 153.826 46.0458 157.542 47.1199 157.559Z" stroke="#FFFFFF" stroke-width="0.176083" stroke-miterlimit="10" fill="#1D1D1B" transform="matrix(1 0 0 1.01011 616.054 33)"/><path d="M63.2491 164.11 63.2491 151.977 66.4538 151.977C66.7356 151.977 67.0349 151.995 67.3166 152.013 67.5984 152.03 67.8977 152.066 68.1795 152.101 68.4612 152.136 68.7253 152.189 68.9894 152.242 69.236 152.277 69.4649 152.347 69.7114 152.418 70.3277 152.611 70.8911 152.893 71.4194 153.245 71.8948 153.58 72.3174 154.002 72.6696 154.478 73.0041 154.971 73.2683 155.499 73.4267 156.08 73.6028 156.697 73.6909 157.348 73.6909 158 73.6909 158.616 73.6204 159.232 73.4796 159.831 73.3387 160.377 73.1274 160.905 72.8104 161.398 72.5111 161.873 72.1413 162.296 71.7011 162.648 71.2257 163.018 70.6798 163.317 70.0988 163.529 69.5353 163.74 68.9542 163.881 68.3555 163.969 67.6336 164.074 66.894 164.127 66.1545 164.11L63.2491 164.11ZM66.3834 162.261C67.6864 162.261 68.6901 162.085 69.4296 161.733 70.0459 161.433 70.5742 160.94 70.8911 160.341 71.2257 159.725 71.3842 158.95 71.3842 158 71.3842 157.542 71.3313 157.102 71.2257 156.661 71.12 156.292 70.9616 155.922 70.7503 155.605 70.5566 155.305 70.2925 155.024 70.0107 154.795 69.7114 154.566 69.3768 154.372 69.0247 154.249 68.6549 154.108 68.2675 154.002 67.8801 153.95 67.4047 153.879 66.9293 153.862 66.4538 153.862L65.4678 153.862 65.4678 162.278 66.3834 162.261Z" stroke="#FFFFFF" stroke-width="0.176083" stroke-miterlimit="10" fill="#1D1D1B" transform="matrix(1 0 0 1.01011 616.054 33)"/><path d="M88.3762 164.11 86.1576 164.11 86.1576 153.844 82.2485 153.844 82.2485 151.977 92.2852 151.977 92.2852 153.844 88.3762 153.844 88.3762 164.11Z" stroke="#FFFFFF" stroke-width="0.176083" stroke-miterlimit="10" fill="#1D1D1B" transform="matrix(1 0 0 1.01011 616.054 33)"/><path d="M104.03 162.243 109.999 162.243 109.999 164.11 101.811 164.11 101.811 151.977 109.665 151.977 109.665 153.844 104.03 153.844 104.03 156.978 108.872 156.978 108.872 158.827 104.03 158.827 104.03 162.243Z" stroke="#FFFFFF" stroke-width="0.176083" stroke-miterlimit="10" fill="#1D1D1B" transform="matrix(1 0 0 1.01011 616.054 33)"/><path d="M126.445 157.612C127.308 158.845 128.013 159.954 128.558 160.905L128.611 160.905C128.541 159.338 128.506 158.176 128.506 157.454L128.506 151.96 130.724 151.96 130.724 164.11 128.4 164.11 124.456 158.528C123.751 157.559 123.047 156.432 122.29 155.165L122.237 155.165C122.307 156.644 122.343 157.806 122.343 158.616L122.343 164.11 120.124 164.11 120.124 151.977 122.448 151.977 126.445 157.612Z" stroke="#FFFFFF" stroke-width="0.176083" stroke-miterlimit="10" fill="#1D1D1B" transform="matrix(1 0 0 1.01011 616.054 33)"/><path d="M147.751 157.612C148.614 158.845 149.319 159.954 149.864 160.905L149.917 160.905C149.847 159.338 149.812 158.176 149.812 157.454L149.812 151.96 152.03 151.96 152.03 164.11 149.706 164.11 145.762 158.528C145.057 157.559 144.353 156.432 143.596 155.165L143.543 155.165C143.614 156.644 143.649 157.806 143.649 158.616L143.649 164.11 141.43 164.11 141.43 151.977 143.754 151.977 147.751 157.612Z" stroke="#FFFFFF" stroke-width="0.176083" stroke-miterlimit="10" fill="#1D1D1B" transform="matrix(1 0 0 1.01011 616.054 33)"/><path d="M162.736 164.11 162.736 151.977 164.955 151.977 164.955 164.11 162.736 164.11Z" stroke="#FFFFFF" stroke-width="0.176083" stroke-miterlimit="10" fill="#1D1D1B" transform="matrix(1 0 0 1.01011 616.054 33)"/><path d="M181.612 160.623C181.63 160.359 181.542 160.095 181.383 159.884 181.225 159.69 181.014 159.531 180.767 159.408 180.485 159.285 180.186 159.179 179.887 159.109 179.57 159.038 179.218 158.968 178.865 158.88 178.408 158.774 177.95 158.651 177.51 158.51 177.105 158.387 176.717 158.176 176.383 157.929 176.048 157.683 175.784 157.348 175.608 156.978 175.397 156.52 175.309 156.027 175.309 155.534 175.291 154.953 175.414 154.39 175.643 153.862 175.854 153.404 176.171 152.999 176.559 152.682 176.964 152.365 177.422 152.118 177.915 151.977 178.478 151.819 179.077 151.731 179.658 151.749 180.309 151.749 180.961 151.819 181.612 151.942 182.193 152.048 182.757 152.206 183.303 152.435L183.303 154.337C182.722 154.108 182.105 153.914 181.489 153.791 180.961 153.686 180.415 153.615 179.869 153.615 179.147 153.615 178.584 153.756 178.179 154.02 177.791 154.284 177.562 154.742 177.58 155.217 177.562 155.482 177.633 155.746 177.774 155.975 177.915 156.186 178.091 156.344 178.302 156.468 178.548 156.608 178.795 156.714 179.077 156.785 179.358 156.855 179.675 156.943 180.01 156.996 180.521 157.102 181.014 157.225 181.489 157.366 181.929 157.489 182.352 157.7 182.739 157.964 183.109 158.211 183.391 158.563 183.602 158.95 183.831 159.443 183.937 159.972 183.919 160.518 183.937 161.099 183.813 161.68 183.549 162.208 183.303 162.683 182.951 163.088 182.528 163.388 182.035 163.722 181.489 163.951 180.908 164.074 180.221 164.233 179.535 164.303 178.83 164.303 178.179 164.303 177.527 164.233 176.893 164.11 176.347 164.004 175.802 163.828 175.309 163.564L175.309 161.68C175.872 161.926 176.453 162.12 177.052 162.243 177.633 162.366 178.214 162.419 178.813 162.419 179.165 162.419 179.499 162.384 179.851 162.331 180.168 162.278 180.468 162.19 180.767 162.032 181.031 161.909 181.243 161.697 181.419 161.468 181.542 161.239 181.63 160.94 181.612 160.623Z" stroke="#FFFFFF" stroke-width="0.176083" stroke-miterlimit="10" fill="#1D1D1B" transform="matrix(1 0 0 1.01011 616.054 33)"/><path d="M194.167 164.11 194.167 151.977 196.386 151.977 196.386 157.489 196.421 157.489 200.999 151.977 203.746 151.977 198.692 157.982 204.169 164.092 201.316 164.092 196.421 158.616 196.386 158.616 196.386 164.11 194.167 164.11Z" stroke="#FFFFFF" stroke-width="0.176083" stroke-miterlimit="10" fill="#1D1D1B" transform="matrix(1 0 0 1.01011 616.054 33)"/><path d="M215.896 151.977 215.896 162.243 221.566 162.243 221.566 164.11 213.677 164.11 213.677 151.977 215.896 151.977Z" stroke="#FFFFFF" stroke-width="0.176083" stroke-miterlimit="10" fill="#1D1D1B" transform="matrix(1 0 0 1.01011 616.054 33)"/><path d="M236.48 164.339C235.899 164.339 235.335 164.286 234.772 164.145 234.296 164.039 233.856 163.863 233.434 163.617 233.064 163.388 232.729 163.106 232.448 162.771 232.166 162.437 231.955 162.049 231.796 161.627 231.655 161.257 231.567 160.887 231.514 160.5 231.461 160.042 231.426 159.584 231.426 159.126L231.426 151.977 233.645 151.977 233.645 158.915C233.645 159.778 233.751 160.447 233.962 160.923 234.156 161.416 234.508 161.821 234.966 162.085 235.952 162.56 237.096 162.56 238.082 162.085 238.54 161.821 238.892 161.416 239.086 160.923 239.297 160.447 239.385 159.76 239.403 158.915L239.403 151.977 241.639 151.977 241.639 159.126C241.639 159.584 241.604 160.042 241.551 160.5 241.498 160.887 241.41 161.257 241.269 161.627 241.111 162.032 240.9 162.419 240.618 162.771 240.336 163.106 240.002 163.405 239.614 163.617 239.192 163.863 238.734 164.039 238.241 164.145 237.642 164.286 237.061 164.339 236.48 164.339Z" stroke="#FFFFFF" stroke-width="0.176083" stroke-miterlimit="10" fill="#1D1D1B" transform="matrix(1 0 0 1.01011 616.054 33)"/><path d="M261.026 155.217C261.026 155.728 260.903 156.221 260.674 156.661 260.41 157.137 259.987 157.507 259.512 157.753L259.512 157.788C259.811 157.894 260.075 158.017 260.339 158.176 260.586 158.334 260.797 158.528 260.973 158.757 261.149 158.986 261.29 159.232 261.396 159.496 261.501 159.796 261.554 160.113 261.554 160.429 261.554 160.746 261.501 161.081 261.413 161.38 261.308 161.733 261.149 162.067 260.92 162.366 260.656 162.719 260.339 163 259.969 163.247 259.512 163.546 259.019 163.757 258.49 163.881 258.332 163.916 258.173 163.951 257.997 163.986 257.821 164.022 257.627 164.039 257.399 164.057 257.17 164.074 256.941 164.092 256.677 164.11 256.412 164.127 256.113 164.127 255.779 164.127L252.257 164.127 252.257 151.995 256.465 151.995C257.205 151.977 257.927 152.066 258.649 152.277 259.036 152.4 259.388 152.576 259.723 152.805 260.005 152.999 260.251 153.245 260.462 153.527 260.656 153.774 260.797 154.055 260.903 154.355 260.991 154.619 261.026 154.918 261.026 155.217ZM256.483 156.978C256.941 156.996 257.399 156.943 257.839 156.802 258.138 156.697 258.385 156.485 258.543 156.221 258.684 155.975 258.754 155.675 258.754 155.394 258.754 155.094 258.666 154.795 258.508 154.531 258.297 154.249 258.015 154.055 257.68 153.967 257.487 153.914 257.311 153.879 257.117 153.862 256.906 153.844 256.624 153.826 256.307 153.826L254.476 153.826 254.476 156.961 256.483 156.978ZM254.476 158.827 254.476 162.243 255.919 162.243C256.307 162.243 256.641 162.226 256.923 162.208 257.17 162.19 257.399 162.155 257.645 162.102 257.909 162.049 258.173 161.961 258.42 161.838 258.614 161.733 258.772 161.609 258.913 161.451 259.036 161.31 259.124 161.151 259.177 160.975 259.23 160.799 259.265 160.606 259.265 160.429 259.265 160.113 259.177 159.796 258.983 159.531 258.754 159.25 258.455 159.056 258.103 158.968 257.909 158.915 257.698 158.862 257.487 158.845 257.187 158.81 256.888 158.81 256.589 158.81L254.476 158.827Z" stroke="#FFFFFF" stroke-width="0.176083" stroke-miterlimit="10" fill="#1D1D1B" transform="matrix(1 0 0 1.01011 616.054 33)"/><path d="M280.395 155.217C280.395 155.728 280.272 156.221 280.043 156.661 279.779 157.137 279.356 157.507 278.881 157.753L278.881 157.788C279.18 157.894 279.444 158.017 279.708 158.176 279.955 158.334 280.166 158.528 280.36 158.757 280.536 158.986 280.677 159.232 280.782 159.496 280.888 159.796 280.941 160.113 280.941 160.429 280.941 160.746 280.888 161.081 280.8 161.38 280.694 161.733 280.536 162.067 280.307 162.366 280.043 162.719 279.726 163 279.356 163.247 278.898 163.546 278.405 163.757 277.877 163.881 277.719 163.916 277.56 163.951 277.384 163.986 277.208 164.022 277.014 164.039 276.785 164.057 276.556 164.074 276.328 164.092 276.063 164.11 275.799 164.127 275.5 164.127 275.165 164.127L271.644 164.127 271.644 151.995 275.852 151.995C276.592 151.977 277.314 152.066 278.036 152.277 278.423 152.4 278.775 152.576 279.11 152.805 279.391 152.999 279.638 153.245 279.849 153.527 280.043 153.774 280.184 154.055 280.289 154.355 280.342 154.619 280.395 154.918 280.395 155.217ZM275.834 156.978C276.292 156.996 276.75 156.943 277.19 156.802 277.49 156.697 277.736 156.485 277.895 156.221 278.036 155.975 278.106 155.675 278.106 155.394 278.106 155.094 278.018 154.795 277.859 154.531 277.648 154.249 277.366 154.055 277.032 153.967 276.838 153.914 276.644 153.879 276.451 153.862 276.239 153.844 275.958 153.826 275.641 153.826L273.827 153.826 273.827 156.961 275.834 156.978ZM273.827 158.827 273.827 162.243 275.271 162.243C275.658 162.243 275.993 162.226 276.275 162.208 276.521 162.19 276.75 162.155 276.997 162.102 277.261 162.049 277.525 161.961 277.771 161.838 277.965 161.733 278.124 161.609 278.264 161.451 278.388 161.31 278.476 161.151 278.529 160.975 278.581 160.799 278.617 160.606 278.617 160.429 278.617 160.113 278.529 159.796 278.335 159.531 278.106 159.25 277.807 159.056 277.454 158.968 277.261 158.915 277.049 158.862 276.838 158.845 276.539 158.81 276.239 158.81 275.94 158.81L273.827 158.827Z" stroke="#FFFFFF" stroke-width="0.176083" stroke-miterlimit="10" fill="#1D1D1B" transform="matrix(1 0 0 1.01011 616.054 33)"/><path d="M16.3229 109.013 16.3229 139.581C16.3229 141.096 15.0903 142.328 13.576 142.328 12.0617 142.328 10.8291 141.096 10.8291 139.581L10.8996 109.013 2.76451 109.013C2.02496 109.031 1.32062 108.731 0.809983 108.186 0.281733 107.675 0 106.971 0 106.231-0.0176083 105.509 0.281733 104.805 0.809983 104.312 1.32062 103.801 2.02496 103.502 2.7469 103.519L24.4756 103.519C25.1975 103.502 25.9019 103.801 26.4125 104.312 26.9407 104.805 27.2225 105.509 27.2225 106.231 27.2225 106.971 26.9407 107.675 26.4125 108.186 25.9019 108.731 25.1975 109.031 24.458 109.013L16.3229 109.013Z" stroke="#FFFFFF" stroke-width="0.176083" stroke-miterlimit="10" fill="#1D1D1B" transform="matrix(1 0 0 1.01011 616.054 33)"/><path d="M52.0326 125.266 59.7275 138.173C60.1324 138.771 60.2381 139.511 60.062 140.215 59.8859 140.937 59.4281 141.553 58.7942 141.923 58.1603 142.275 57.4208 142.381 56.7164 142.187 56.0121 142.046 55.3958 141.606 55.0436 140.99L45.676 125.336 35.9738 125.336 35.9738 139.581C35.9738 141.096 34.7412 142.328 33.2269 142.328 31.7126 142.328 30.48 141.096 30.48 139.581L30.48 122.589C30.48 121.075 31.7126 119.842 33.2269 119.842L51.1522 119.842C52.3144 119.807 53.2652 119.49 53.9871 118.944 54.7091 118.398 55.2725 117.676 55.6247 116.831 55.9064 116.127 56.0297 115.387 56.0297 114.63 56.0473 113.873 55.8888 113.116 55.5543 112.429 55.2197 111.637 54.6739 110.968 53.9871 110.457 53.2476 109.894 52.2967 109.612 51.1522 109.612L51.1522 109.682 33.2445 109.682C32.505 109.7 31.8006 109.401 31.3076 108.855 30.7794 108.344 30.4976 107.64 30.4976 106.9 30.48 106.178 30.7794 105.492 31.3076 104.981 31.8183 104.47 32.5226 104.171 33.2445 104.188L51.1698 104.188C53.6174 104.188 55.6423 104.787 57.2271 105.985 58.759 107.111 59.9388 108.626 60.6783 110.387 61.277 111.725 61.5587 113.186 61.5411 114.648 61.5411 116.092 61.277 117.518 60.7311 118.839 60.0972 120.529 59.0231 122.026 57.6145 123.17 56.1706 124.403 54.3041 125.09 52.0326 125.266Z" stroke="#FFFFFF" stroke-width="0.176083" stroke-miterlimit="10" fill="#1D1D1B" transform="matrix(1 0 0 1.01011 616.054 33)"/><path d="M84.7665 103.467C87.5134 103.449 90.2251 103.995 92.7431 105.069 97.6382 107.164 101.53 111.073 103.607 115.968 105.72 121.057 105.72 126.762 103.607 131.851 102.586 134.281 101.089 136.482 99.2405 138.366 97.3741 140.233 95.173 141.712 92.7431 142.716 87.6367 144.758 81.9316 144.758 76.8251 142.716 74.3776 141.712 72.1589 140.233 70.2925 138.366 62.3863 130.354 62.3863 117.483 70.2925 109.471 72.1765 107.604 74.3952 106.108 76.8251 105.051 79.3255 103.995 82.0372 103.449 84.7665 103.467ZM95.3667 113.31C94.0109 111.954 92.4085 110.88 90.6477 110.122 88.7988 109.33 86.7915 108.925 84.7841 108.943 82.7944 108.925 80.8222 109.33 78.991 110.122 75.4341 111.637 72.5815 114.472 71.0848 118.029 70.2925 119.878 69.8875 121.885 69.9051 123.892 69.8875 125.882 70.2925 127.854 71.0848 129.685 72.5991 133.242 75.4341 136.095 78.991 137.591 80.8222 138.384 82.7944 138.771 84.7841 138.771 86.7915 138.789 88.7988 138.384 90.6477 137.591 94.2046 136.077 97.0571 133.242 98.5538 129.685 99.3462 127.854 99.7336 125.882 99.7336 123.892 99.7512 121.885 99.3462 119.878 98.5538 118.029 97.7967 116.268 96.7049 114.665 95.3667 113.31Z" stroke="#FFFFFF" stroke-width="0.176083" stroke-miterlimit="10" fill="#1D1D1B" transform="matrix(1 0 0 1.01011 616.054 33)"/><path d="M107.939 106.865C107.939 105.351 109.154 104.136 110.668 104.118L110.686 104.118 110.95 104.118C111.848 104.012 112.746 104.4 113.292 105.122L134.827 131.816 134.827 106.865C134.827 105.351 136.06 104.118 137.574 104.118 139.088 104.118 140.321 105.351 140.321 106.865L140.321 139.564C140.321 141.078 139.106 142.311 137.591 142.311L137.591 142.311C136.799 142.328 136.024 141.994 135.514 141.377L135.179 141.043 113.415 114.102 113.415 139.581C113.415 141.096 112.183 142.328 110.668 142.328 109.154 142.328 107.921 141.096 107.921 139.581L107.939 106.865Z" stroke="#FFFFFF" stroke-width="0.176083" stroke-miterlimit="10" fill="#1D1D1B" transform="matrix(1 0 0 1.01011 616.054 33)"/><path d="M146.73 109.612C146.008 109.629 145.304 109.33 144.793 108.819 144.265 108.326 143.983 107.622 143.983 106.9 143.983 106.161 144.265 105.474 144.793 104.946 145.286 104.417 145.991 104.118 146.73 104.118L160.905 104.118C162.454 104.1 164.004 104.382 165.448 104.946 166.804 105.492 168.036 106.284 169.093 107.288 170.167 108.326 171.083 109.524 171.804 110.827 172.579 112.235 173.213 113.732 173.671 115.264 174.041 116.461 174.305 117.694 174.481 118.944 174.657 120.23 174.745 121.515 174.745 122.818 174.745 124.104 174.675 125.389 174.551 126.657 174.428 127.907 174.182 129.139 173.812 130.354 173.389 131.957 172.773 133.524 171.998 135.003 171.276 136.394 170.361 137.662 169.251 138.771 168.177 139.845 166.927 140.708 165.536 141.342 164.074 141.994 162.49 142.328 160.887 142.311L146.713 142.311C145.991 142.328 145.286 142.029 144.776 141.518 144.247 141.025 143.966 140.321 143.966 139.599 143.966 138.859 144.247 138.173 144.776 137.644 145.269 137.116 145.973 136.799 146.713 136.817L160.887 136.817C162.807 136.782 164.391 135.989 165.677 134.475 166.997 132.872 167.931 130.988 168.459 128.981 169.005 126.974 169.269 124.896 169.269 122.818 169.269 121.779 169.198 120.758 169.04 119.737 168.899 118.733 168.67 117.765 168.406 116.778 167.79 114.718 166.839 113.01 165.589 111.654 164.409 110.316 162.683 109.577 160.905 109.612L146.73 109.612Z" stroke="#FFFFFF" stroke-width="0.176083" stroke-miterlimit="10" fill="#1D1D1B" transform="matrix(1 0 0 1.01011 616.054 33)"/><path d="M199.696 106.883C199.661 105.368 200.841 104.1 202.373 104.065 203.904 104.03 205.155 105.21 205.19 106.742 205.19 106.795 205.19 106.83 205.19 106.883L205.19 122.466C205.26 122.73 205.313 122.994 205.331 123.276 205.331 123.399 205.313 123.522 205.296 123.646 205.278 123.769 205.243 123.892 205.19 124.015L205.19 139.599C205.225 141.113 204.028 142.381 202.513 142.416 200.999 142.451 199.731 141.254 199.696 139.74 199.696 139.687 199.696 139.652 199.696 139.599L199.696 126.023 183.919 126.023 183.919 139.599C183.919 141.113 182.686 142.346 181.172 142.346 179.658 142.346 178.425 141.113 178.425 139.599L178.425 124.015C178.39 123.892 178.355 123.769 178.32 123.646 178.302 123.522 178.284 123.399 178.284 123.276 178.302 123.012 178.337 122.73 178.425 122.466L178.425 106.883C178.425 105.368 179.658 104.136 181.172 104.153 182.686 104.153 183.919 105.386 183.901 106.9L183.901 120.529 199.678 120.529 199.696 106.883 199.696 106.883Z" stroke="#FFFFFF" stroke-width="0.176083" stroke-miterlimit="10" fill="#1D1D1B" transform="matrix(1 0 0 1.01011 616.054 33)"/><path d="M234.737 104.136C235.476 104.136 236.198 104.435 236.709 104.963 237.255 105.474 237.554 106.178 237.554 106.918 237.572 107.64 237.255 108.344 236.709 108.837 236.181 109.348 235.476 109.629 234.737 109.629L221.301 109.629C219.558 109.594 218.114 110.263 216.952 111.654 215.79 113.045 214.927 114.753 214.346 116.761 214.135 117.36 213.976 117.976 213.871 118.61 213.783 119.208 213.695 119.86 213.607 120.529L228.996 120.529C230.511 120.529 231.743 121.762 231.743 123.276 231.743 124.79 230.511 126.023 228.996 126.023L213.677 126.023C213.73 127.026 213.906 128.013 214.205 128.963 214.786 131.147 215.667 132.978 216.847 134.475 218.026 135.972 219.505 136.764 221.301 136.852L234.754 136.852C235.494 136.852 236.198 137.134 236.726 137.662 237.8 138.683 237.836 140.356 236.832 141.43 236.797 141.465 236.762 141.501 236.726 141.536 236.198 142.064 235.494 142.346 234.754 142.346L221.319 142.346C219.77 142.363 218.238 142.029 216.847 141.377 215.526 140.743 214.311 139.863 213.307 138.806 212.251 137.68 211.353 136.412 210.666 135.021 209.926 133.542 209.345 131.974 208.958 130.372 208.606 129.157 208.359 127.925 208.218 126.657 208.078 125.371 208.025 124.104 208.025 122.818 208.007 120.282 208.342 117.765 209.028 115.335 209.451 113.785 210.05 112.306 210.807 110.88 211.494 109.577 212.392 108.397 213.448 107.376 214.469 106.407 215.649 105.615 216.952 105.069 218.343 104.505 219.84 104.206 221.337 104.241L221.337 104.171 234.737 104.136Z" stroke="#FFFFFF" stroke-width="0.176083" stroke-miterlimit="10" fill="#1D1D1B" transform="matrix(1 0 0 1.01011 616.054 33)"/><path d="M241.023 106.865C241.023 105.351 242.255 104.118 243.77 104.118 245.284 104.118 246.517 105.351 246.517 106.865L246.517 139.564C246.517 141.078 245.284 142.311 243.77 142.311 242.255 142.311 241.023 141.078 241.023 139.564L241.023 106.865Z" stroke="#FFFFFF" stroke-width="0.176083" stroke-miterlimit="10" fill="#1D1D1B" transform="matrix(1 0 0 1.01011 616.054 33)"/><path d="M250.514 106.865C250.514 106.319 250.672 105.791 250.989 105.333 251.183 104.646 251.605 104.065 252.186 103.66 252.785 103.255 253.525 103.132 254.229 103.29 254.951 103.431 255.585 103.854 256.008 104.453L266.643 120.969 276.803 104.382C277.173 103.731 277.789 103.273 278.511 103.114 279.215 102.938 279.955 103.044 280.554 103.449 281.029 103.748 281.416 104.188 281.663 104.717 281.909 105.21 281.962 105.791 281.821 106.319 281.874 106.495 281.892 106.671 281.892 106.847L281.892 139.546C281.892 141.06 280.677 142.293 279.162 142.293 277.648 142.293 276.416 141.078 276.416 139.564L276.416 139.546 276.416 115.563 269.126 127.537C268.756 128.189 268.122 128.646 267.382 128.805 266.678 128.999 265.921 128.875 265.305 128.47 265.111 128.347 264.935 128.206 264.776 128.03 264.636 127.872 264.512 127.713 264.371 127.537L256.008 114.63 256.008 139.581C256.008 141.096 254.775 142.328 253.261 142.328 251.746 142.328 250.514 141.096 250.514 139.581L250.514 106.865Z" stroke="#FFFFFF" stroke-width="0.176083" stroke-miterlimit="10" fill="#1D1D1B" transform="matrix(1 0 0 1.01011 616.054 33)"/></g></svg>